<svg width="88" height="56" viewBox="0 0 88 56" fill="none" xmlns="http://www.w3.org/2000/svg">
<g clip-path="url(#clip0_142_4593)">
<path d="M23.3836 31.7893V32.0141H31.8203V31.7893C31.3079 31.7893 30.7825 31.5795 30.242 31.1579C29.7014 30.7363 29.1738 29.8952 28.6636 28.6325L17.6106 0.433594H16.6636L5.15871 28.6325C4.64628 29.8952 4.12087 30.7385 3.58033 31.1579C3.03979 31.5795 2.51222 31.7893 2.00195 31.7893V32.0141H6.19655V31.7893C5.68412 31.7893 5.34033 31.5795 5.15871 31.1579C4.97925 30.7363 5.14357 29.8952 5.65601 28.6325L8.22682 22.3168H21.4463L23.9284 28.6325C24.4387 29.8952 24.6052 30.7385 24.4257 31.1579C24.2441 31.5795 23.8982 31.7893 23.3879 31.7893H23.3836ZM8.40628 21.8649L14.9922 5.8044L21.2625 21.8649H8.40411H8.40628Z" fill="#E04403"/>
<path d="M52.0779 30.7276C53.8833 29.8714 55.2887 28.7947 56.2962 27.5017C57.3038 26.2087 57.9265 24.7947 58.1687 23.2617C58.4087 21.7287 58.2357 20.2779 57.6498 18.9071C57.0638 17.5385 56.0779 16.3579 54.6941 15.3655C53.3103 14.3731 51.5049 13.7568 49.28 13.5168C51.0552 13.1558 52.5211 12.5849 53.6779 11.8022C54.8346 11.0217 55.6865 10.1482 56.2271 9.18603C56.7676 8.22386 56.9946 7.22278 56.9038 6.18495C56.813 5.14711 56.4087 4.20008 55.6865 3.34386C54.9644 2.48765 53.92 1.78711 52.5514 1.24657C51.1827 0.706026 49.4898 0.433594 47.4768 0.433594H33.626V0.658459C34.1362 0.658459 34.573 0.87035 34.9341 1.28981C35.2952 1.71143 35.4746 2.55251 35.4746 3.81522V28.6282C35.4746 29.8909 35.2952 30.7341 34.9341 31.1536C34.573 31.5752 34.1362 31.7849 33.626 31.7849V32.0098H45.5373C48.093 32.0098 50.2746 31.5817 52.0779 30.7233V30.7276ZM39.9871 0.883323H45.1308C46.5752 0.883323 47.8444 1.19251 48.9427 1.80873C50.0411 2.42494 50.9276 3.19251 51.6044 4.10927C52.2811 5.02603 52.7027 6.02711 52.8671 7.11035C53.0314 8.19359 52.9125 9.20116 52.506 10.1331C52.0995 11.0649 51.3622 11.8412 50.2962 12.4574C49.2281 13.0736 47.7925 13.3979 45.9871 13.4282H39.9871V0.883323ZM41.8141 31.3136C41.4984 31.1493 41.2044 30.9071 40.9341 30.5914C40.6638 30.2758 40.4368 29.8779 40.2573 29.3958C40.0779 28.9136 39.9871 28.3579 39.9871 27.7266V13.8758H45.1308C46.8735 13.8758 48.4022 14.3125 49.7103 15.1839C51.0184 16.0574 52.0562 17.1471 52.8238 18.4552C53.5914 19.7633 54.0562 21.1774 54.2227 22.6952C54.3871 24.2152 54.2141 25.6271 53.7038 26.9352C53.1914 28.2433 52.3049 29.3331 51.0422 30.2066C49.7795 31.0801 48.0952 31.5298 45.9892 31.5601H42.6962C42.426 31.5601 42.1319 31.4779 41.8162 31.3114L41.8141 31.3136Z" fill="#E04403"/>
<path d="M63.762 27.367C64.9339 28.8999 66.3847 30.1345 68.1144 31.0664C69.8442 31.9983 71.8377 32.4653 74.0928 32.4653C76.469 32.4653 78.6939 31.9918 80.7696 31.0448C82.8452 30.0978 84.6333 28.6167 86.1382 26.6016L85.8679 26.3313C84.7847 27.5032 83.5436 28.4589 82.1469 29.1962C80.7479 29.9335 79.1912 30.301 77.4766 30.301C75.6712 30.301 74.0258 29.8794 72.536 29.0383C71.0463 28.1972 69.7533 27.0924 68.6571 25.7216C67.5587 24.3529 66.6485 22.7897 65.9285 21.0297C65.2063 19.2697 64.6939 17.4729 64.3955 15.6372C64.095 13.8037 64.0279 12.0048 64.1923 10.247C64.3566 8.48696 64.7631 6.91723 65.4096 5.53345C66.056 4.14967 66.9577 3.02967 68.1166 2.17129C69.2733 1.31507 70.7112 0.871828 72.4258 0.841558C73.3274 0.841558 74.1404 0.938856 74.8625 1.13561C75.5847 1.33237 76.2463 1.5875 76.8474 1.90318C77.4485 2.21886 77.9912 2.58859 78.4712 3.00804C78.9512 3.42967 79.3728 3.86426 79.7339 4.31615C80.2744 4.97777 80.8171 5.30858 81.3577 5.30858C81.9587 5.30858 82.4863 4.93237 82.936 4.17994L83.9285 2.55615C83.1155 1.95507 82.296 1.48156 81.4701 1.13561C80.642 0.789666 79.8463 0.525883 79.0787 0.346423C78.3112 0.164802 77.589 0.0458826 76.9123 -0.0146579C76.2355 -0.0751985 75.6258 -0.105469 75.0852 -0.105469C72.4993 -0.105469 70.2658 0.361558 68.3847 1.29345C66.5058 2.22534 64.949 3.45777 63.7166 4.99291C62.482 6.52804 61.5652 8.26426 60.9641 10.2037C60.3631 12.1432 60.0755 14.1367 60.1079 16.1821C60.1382 18.2275 60.4604 20.2189 61.0787 22.1605C61.695 24.0999 62.5901 25.8383 63.762 27.3713V27.367Z" fill="#E04403"/>
<path d="M11.9047 47.4807C11.4204 48.0061 10.8561 48.4386 10.2312 48.7694C9.61285 49.0959 8.91231 49.2602 8.15123 49.2602C7.34907 49.2602 6.60961 49.0721 5.95015 48.698C5.28421 48.3218 4.69826 47.8202 4.20745 47.2083C3.71448 46.5942 3.29934 45.8786 2.97285 45.0851C2.64637 44.2872 2.41069 43.4634 2.27664 42.6353C2.14042 41.8072 2.11015 40.9856 2.18367 40.1921C2.25718 39.4029 2.44312 38.6894 2.73069 38.071C3.0161 37.4591 3.42042 36.9575 3.93069 36.5791C4.43448 36.205 5.07231 36.0105 5.82475 35.9953C6.22475 35.9953 6.58799 36.0386 6.90799 36.125C7.22799 36.2115 7.52637 36.3261 7.79231 36.4667C8.0561 36.605 8.29826 36.7694 8.51231 36.9553C8.72637 37.1434 8.91664 37.3402 9.07664 37.5391C9.66691 38.2613 10.3523 38.2007 10.7956 37.4591L11.3253 36.5942L11.215 36.5121C10.8323 36.2288 10.441 36.004 10.0518 35.8396C9.66258 35.6775 9.28421 35.5521 8.92745 35.4678C8.57069 35.3834 8.22691 35.3272 7.90907 35.2969C7.59556 35.2688 7.30799 35.2559 7.05502 35.2559C5.84637 35.2559 4.78475 35.4786 3.90258 35.9153C3.02042 36.3521 2.28096 36.9402 1.7015 37.6602C1.12421 38.378 0.689611 39.2018 0.40853 40.1099C0.120962 41.0159 -0.0130916 41.9564 -0.000118613 42.9099C0.0128544 43.8613 0.166368 44.8018 0.453935 45.7056C0.741503 46.6115 1.16529 47.4332 1.71448 48.151C2.26583 48.871 2.95556 49.4591 3.76853 49.8959C4.58366 50.3348 5.53285 50.5575 6.59231 50.5575C7.70366 50.5575 8.7588 50.3326 9.72961 49.8894C10.7047 49.444 11.5566 48.7413 12.2593 47.7964L12.3372 47.6926L12.0085 47.3661L11.9026 47.4807H11.9047Z" fill="#E04403"/>
<path d="M21.8437 41.2649C21.4048 40.733 20.8643 40.2962 20.2394 39.9697C19.6102 39.6411 18.8945 39.4746 18.1118 39.4746C17.5021 39.4746 16.8859 39.5784 16.2762 39.7838C15.6643 39.9914 15.1043 40.3157 14.6156 40.7481C14.1248 41.1827 13.7205 41.7427 13.4156 42.4087C13.1108 43.0768 12.9551 43.8789 12.9551 44.7979C12.9551 45.7168 13.1086 46.5384 13.4135 47.2454C13.7162 47.9524 14.1162 48.5578 14.5983 49.0465C15.0826 49.5373 15.6405 49.9114 16.2589 50.16C16.8772 50.4087 17.4999 50.5341 18.1118 50.5341C18.7237 50.5341 19.3551 50.4303 19.9583 50.2249C20.5637 50.0195 21.1151 49.6908 21.6016 49.2476C22.0859 48.8065 22.4816 48.2443 22.7799 47.5784C23.0783 46.9124 23.2297 46.1146 23.2297 45.2108C23.2297 44.4908 23.1086 43.7795 22.8686 43.0941C22.6286 42.4087 22.2826 41.7924 21.8459 41.2606L21.8437 41.2649ZM21.3853 47.8227C21.2729 48.2249 21.1021 48.586 20.8794 48.8973C20.6589 49.2022 20.3735 49.4443 20.0297 49.6195C19.6881 49.7924 19.2837 49.8681 18.8297 49.8422C18.2675 49.8033 17.7291 49.5827 17.2297 49.1892C16.7194 48.787 16.2697 48.2746 15.8935 47.6692C15.5151 47.0616 15.2081 46.3806 14.9853 45.6476C14.7626 44.9168 14.6481 44.1989 14.6481 43.5092C14.6481 43.0811 14.6978 42.6595 14.7994 42.2573C14.8989 41.8616 15.0545 41.507 15.2643 41.2065C15.4718 40.9081 15.7399 40.6595 16.0578 40.4714C16.3735 40.2854 16.7562 40.1903 17.1994 40.1903C17.7897 40.1838 18.3453 40.3676 18.8621 40.7524C19.3918 41.1481 19.861 41.6627 20.2589 42.2811C20.6589 42.9038 20.9767 43.6043 21.2081 44.3633C21.4372 45.1222 21.554 45.8616 21.554 46.5643C21.554 46.9903 21.4956 47.4141 21.3832 47.8227H21.3853Z" fill="#E04403"/>
<path d="M34.0865 49.71C33.9892 49.5976 33.8725 49.3187 33.8725 48.6441V45.3208C33.8725 44.6159 33.8508 43.9111 33.8098 43.2235C33.7687 42.5251 33.6303 41.8938 33.4033 41.3468C33.1719 40.7911 32.8195 40.3327 32.3568 39.9846C31.8898 39.6343 31.2217 39.457 30.3762 39.457C29.4768 39.457 28.6725 39.6927 27.9849 40.1576C27.4487 40.5208 26.9903 40.9835 26.6206 41.537V39.5759L23.5979 41.0289V41.4441L23.9611 41.3078C24.1211 41.2538 24.24 41.2581 24.3244 41.3187C24.4087 41.3792 24.4498 41.4916 24.4498 41.6646V48.6462C24.4498 49.3208 24.333 49.5976 24.2357 49.7122C24.0995 49.8722 23.9395 49.95 23.7471 49.95H23.5957V50.3543H27.4703V49.95H27.3189C27.1287 49.95 26.9687 49.8722 26.8303 49.7122C26.733 49.5997 26.6162 49.3208 26.6162 48.6462V42.6116C26.9233 41.9154 27.3557 41.3359 27.9006 40.8884C28.4454 40.443 29.0184 40.2159 29.6022 40.2159C30.186 40.2159 30.5773 40.4127 30.8606 40.817C31.1589 41.2408 31.3708 41.7857 31.4898 42.4408C31.613 43.1068 31.6779 43.8505 31.6844 44.6484C31.6908 45.4592 31.6952 46.2224 31.6952 46.9424V48.6462C31.6952 49.3208 31.5784 49.5976 31.4811 49.7122C31.3427 49.8722 31.1849 49.95 30.9925 49.95H30.8411V50.3543H34.7157V49.95H34.5644C34.3741 49.95 34.2141 49.8722 34.0757 49.7122L34.0865 49.71Z" fill="#E04403"/>
<path d="M45.5073 36.4531C45.2565 36.6953 45.1289 37.0023 45.1289 37.3612C45.1289 37.7201 45.2565 38.0293 45.5051 38.278C45.7538 38.5288 46.063 38.6542 46.4219 38.6542C46.7808 38.6542 47.0857 38.5266 47.33 38.2758C47.5721 38.0271 47.6932 37.718 47.6932 37.3612C47.6932 37.0044 47.57 36.6974 47.3278 36.4552C47.0835 36.2131 46.7786 36.0898 46.4219 36.0898C46.0651 36.0898 45.7559 36.2131 45.5073 36.4552V36.4531Z" fill="#E04403"/>
<path d="M47.9885 49.7101C47.8912 49.5976 47.7744 49.3187 47.7744 48.6441V39.5739L44.7517 41.0268V41.442L45.115 41.3057C45.275 41.2517 45.3939 41.256 45.4782 41.3166C45.5625 41.3771 45.6036 41.4895 45.6036 41.6625V45.0895C45.1301 46.7068 44.3431 48.2809 42.9182 49.1349C42.8209 49.1847 42.7258 49.2322 42.6263 49.2712C42.0988 49.4701 41.5669 49.5328 41.0479 49.4614C40.5269 49.3879 40.0166 49.1847 39.5323 48.8517C39.0436 48.5166 38.6047 48.0841 38.2285 47.5674C37.8523 47.0506 37.5431 46.4387 37.3139 45.749C37.0847 45.0614 36.9679 44.309 36.9679 43.5112C36.9679 43.083 37.0177 42.6614 37.1193 42.2593C37.2188 41.8614 37.3766 41.5003 37.5863 41.1847C37.7939 40.8733 38.0598 40.6182 38.3798 40.4301C38.6934 40.2441 39.0782 40.149 39.5193 40.149C39.9193 40.149 40.2544 40.2268 40.5139 40.3782C40.782 40.536 41.0133 40.7155 41.1971 40.9122C41.3896 41.1198 41.5625 41.3079 41.7139 41.4809C41.8912 41.6841 42.0879 41.7944 42.2869 41.8117C42.4793 41.8376 42.7561 41.7987 42.9961 41.4852C43.1755 41.2517 43.2663 41.0117 43.2663 40.7695C43.2663 40.4841 43.1366 40.2463 42.8815 40.0647C42.6544 39.9025 42.3798 39.7771 42.0663 39.6885C41.7615 39.6041 41.4458 39.5458 41.1258 39.5176C40.8123 39.4895 40.5658 39.4766 40.395 39.4766C39.7139 39.4766 39.0588 39.5955 38.4512 39.829C37.8393 40.0625 37.2901 40.4128 36.8209 40.869C36.3517 41.3252 35.9734 41.8895 35.6966 42.549C35.4198 43.2085 35.2793 43.9652 35.2793 44.7998C35.2793 45.7166 35.422 46.5382 35.7052 47.2452C35.9885 47.9522 36.3604 48.5576 36.8144 49.0485C37.2706 49.5393 37.8047 49.9155 38.4036 50.1663C39.0025 50.4149 39.6144 50.5403 40.2285 50.5403C41.022 50.5403 41.8004 50.3717 42.5442 50.0387C43.2923 49.7036 43.9258 49.1652 44.4252 48.4387L44.4966 48.3349L44.4706 48.309C44.9593 47.6776 45.3269 46.9403 45.6058 46.1685V48.6441C45.6058 49.3187 45.489 49.5955 45.3917 49.7101C45.2555 49.8701 45.0955 49.9479 44.9031 49.9479H44.7517V50.3522H48.6263V49.9479H48.475C48.2847 49.9479 48.1247 49.8701 47.9863 49.7101H47.9885Z" fill="#E04403"/>
<path d="M62.1617 49.7098C62.0644 49.5974 61.9477 49.3184 61.9477 48.6438V43.9347C62.0558 43.6493 62.1855 43.3033 62.3325 42.899C62.4817 42.4947 62.6698 42.1011 62.8925 41.7293C63.1131 41.3617 63.3682 41.046 63.6536 40.7866C63.9239 40.5401 64.2288 40.4211 64.5812 40.4211C64.7433 40.4211 64.8882 40.4687 65.0223 40.5682C65.1779 40.6828 65.3379 40.8125 65.5001 40.9552C65.6709 41.1044 65.8482 41.2384 66.0277 41.353C66.2244 41.4784 66.4363 41.5433 66.6677 41.5433C66.9206 41.526 67.1325 41.4049 67.299 41.1822C67.4612 40.9638 67.5261 40.7217 67.4936 40.4622C67.4612 40.2006 67.3077 39.9628 67.0417 39.7595C66.7758 39.5563 66.3585 39.459 65.7661 39.459C65.3228 39.459 64.9012 39.5238 64.5142 39.6536C64.1206 39.7855 63.7552 40.0038 63.4223 40.3087C63.0936 40.6071 62.7801 41.0028 62.4904 41.4849C62.3066 41.792 62.125 42.1444 61.9498 42.5422V39.5779L58.9271 41.0309V41.446L59.2904 41.3098C59.4504 41.2557 59.5693 41.2601 59.6536 41.3206C59.7379 41.3811 59.779 41.4936 59.779 41.6666V44.2957C59.4655 45.6298 58.9747 47.0114 58.1185 48.0579L58.1098 48.0514L58.0039 48.179C57.9174 48.2828 57.8288 48.3779 57.7401 48.4687C57.7077 48.5011 57.6752 48.5314 57.6428 48.5638C57.5931 48.6114 57.5412 48.6568 57.4915 48.7022C57.4288 48.7563 57.3639 48.806 57.299 48.8557C57.232 48.9076 57.1628 48.9595 57.0936 49.0028C57.0893 49.0071 57.0828 49.0093 57.0785 49.0136C56.9725 49.0806 56.8666 49.139 56.7563 49.1887C55.7704 49.6449 54.7066 49.5887 53.7336 49.0482C53.1909 48.7476 52.7044 48.326 52.2828 47.7984C51.859 47.2666 51.5131 46.6287 51.2579 45.9001C51.0006 45.1714 50.8709 44.3714 50.8709 43.5195C50.8709 43.4114 50.8731 43.2968 50.8817 43.1757C50.8861 43.1022 50.8904 43.033 50.8969 42.9639H58.0363L58.0169 42.7952C57.9585 42.3044 57.805 41.8503 57.5606 41.446C57.3163 41.046 57.0115 40.6936 56.6547 40.3995C56.2979 40.1055 55.8936 39.8784 55.4569 39.7206C54.4731 39.366 53.4633 39.4222 52.4147 39.792C51.8309 39.9995 51.2925 40.3238 50.8147 40.7584C50.3369 41.193 49.9412 41.7509 49.6363 42.4168C49.3315 43.0849 49.1758 43.8871 49.1758 44.806C49.1758 45.7249 49.3185 46.5444 49.6017 47.2514C49.885 47.9584 50.2569 48.5639 50.7109 49.0547C51.1671 49.5455 51.7012 49.9217 52.3001 50.1725C52.8969 50.4211 53.5109 50.5466 54.125 50.5466C54.9185 50.5466 55.6969 50.3779 56.4406 50.0449C57.1888 49.7098 57.8223 49.1714 58.3217 48.4449L58.3282 48.4363C59.0028 47.6082 59.4612 46.5855 59.7725 45.5368V48.6503C59.7725 49.3249 59.6558 49.6017 59.5585 49.7163C59.4201 49.8763 59.2623 49.9541 59.0698 49.9541H58.9185V50.3584H62.7931V49.9541H62.6417C62.4515 49.9541 62.2915 49.8763 62.1531 49.7163L62.1617 49.7098ZM51.2363 41.6514C51.3682 41.3552 51.5369 41.0893 51.7401 40.8601C51.9412 40.633 52.1833 40.4493 52.4623 40.313C52.739 40.179 53.0612 40.1098 53.4266 40.1098C54.0688 40.1033 54.5833 40.3087 55.0071 40.7584C55.4028 41.1779 55.7163 41.7466 55.9412 42.4471H50.9833C51.0396 42.166 51.1217 41.8979 51.232 41.6514H51.2363Z" fill="#E04403"/>
<path d="M74.8446 47.7656C75.4803 47.6077 75.9992 47.3915 76.5117 47.0369C77.0219 46.6802 77.3614 46.3104 77.6663 45.7504C77.9711 45.1904 78.09 44.5526 78.0944 43.8802C78.0965 43.4888 78.0187 43.0412 77.8825 42.6412C77.7463 42.2434 77.5452 41.852 77.2857 41.4975C77.0263 41.1429 76.6868 40.8099 76.3387 40.5396C75.9906 40.2693 75.6252 40.0877 75.2252 39.9148C75.3268 39.7375 75.4198 39.5602 75.5257 39.3807C75.8998 39.2207 76.4446 39.0002 76.7819 38.8553C77.1192 38.7104 77.3009 38.5547 77.4457 38.3018C77.5906 38.0488 77.6165 37.8607 77.5841 37.6012C77.5517 37.3418 77.4263 37.1731 77.2209 37.0002C77.0154 36.8272 76.7063 36.7537 76.4317 36.758C76.1549 36.7623 75.9452 36.8812 75.783 37.0931C75.623 37.305 75.5279 37.5385 75.4436 37.7807C75.3592 38.0229 75.29 38.3147 75.2295 38.5461C75.1711 38.7775 75.1322 38.9483 75.0306 39.1493C74.929 39.3504 74.8122 39.5385 74.7041 39.7331C73.4911 39.4434 72.3322 39.4261 71.1257 39.7331C70.5203 39.8866 69.9841 40.1288 69.476 40.4769C68.9679 40.8272 68.5895 41.2164 68.2652 41.7634C67.9409 42.3104 67.796 42.9634 67.8003 43.6185C67.8046 44.4683 68.0533 45.3093 68.5398 45.9731C69.0284 46.6369 69.5582 47.0002 70.2263 47.4175C69.6922 48.3342 69.1625 49.2618 68.6349 50.185C68.6933 50.2153 68.7517 50.2434 68.81 50.2715L68.8533 50.2931C68.9138 50.3234 68.9744 50.3537 69.0371 50.3839C69.0565 50.3666 69.0933 50.3299 69.1127 50.3147C69.5538 49.9299 70.049 49.5688 70.5787 49.3504C71.1063 49.132 71.6749 49.0369 72.209 49.0326C72.9095 49.0283 73.5906 49.1342 74.1527 49.4715C74.7149 49.811 75.0695 50.1893 75.3419 50.745C75.6144 51.3007 75.6511 51.8693 75.5646 52.4769C75.4782 53.0845 75.2511 53.6877 74.8987 54.1937C74.5463 54.6996 74.1484 55.0758 73.5819 55.331C73.0155 55.5861 72.4554 55.6034 71.8414 55.4434C71.2273 55.2834 70.6219 54.9461 70.1506 54.5331C69.6814 54.1223 69.4111 53.6445 69.1387 53.1083C68.8663 52.572 68.6738 52.0034 68.4727 51.4369C68.2717 50.8726 68.0576 50.278 67.7917 49.7504C67.5257 49.2229 67.2533 48.7472 66.8792 48.3018C66.5052 47.8564 66.1355 47.5385 65.569 47.3093C65.2079 47.1623 64.8771 47.1083 64.4252 47.2899C63.9755 47.4737 63.5365 47.8542 63.2317 48.3342C63.076 48.5785 62.8598 49.0066 62.6738 49.2596C62.7495 49.2618 62.9052 49.2704 62.9744 49.2445C63.6014 49.0066 64.2652 48.8488 64.836 49.1623C65.4068 49.4758 65.7182 49.8456 66.09 50.3147C66.4619 50.7839 66.7149 51.2747 67.0046 51.7958C67.2944 52.3169 67.5322 52.8423 67.8673 53.3547C68.2025 53.8672 68.49 54.3061 68.9744 54.7602C69.4587 55.2142 70.183 55.5602 70.8598 55.772C71.8198 56.0726 72.9873 56.1656 73.9214 55.9169C74.8555 55.6683 75.6079 55.2683 76.2544 54.6931C76.9009 54.1158 77.2965 53.4737 77.5495 52.7234C77.8025 51.9753 77.8609 51.3504 77.5884 50.5958C77.316 49.8412 76.8771 49.3353 76.0814 48.8747C75.2857 48.4142 74.2046 48.2326 73.169 48.2693C72.5268 48.291 71.6987 48.425 71.0371 48.6347C70.609 48.7688 70.17 48.9699 69.7765 49.1947C70.0814 48.6737 70.3841 48.1461 70.6911 47.6229C72.1009 48.1029 73.4198 48.1137 74.8425 47.7591L74.8446 47.7656ZM75.7182 42.8466C76.023 43.5061 76.2068 44.2283 76.2327 44.9461C76.2436 45.2942 76.2025 45.5904 76.1095 45.9018C76.0165 46.2131 75.8998 46.4423 75.6771 46.6845C75.4544 46.9266 75.2317 47.0802 74.8836 47.212C74.5376 47.3439 74.0965 47.4131 73.6814 47.4002C73.2641 47.3893 72.7949 47.2726 72.4122 47.091C72.0295 46.9072 71.7225 46.678 71.4025 46.4142C72.4446 44.6629 73.4738 42.9093 74.4944 41.145C75.0003 41.6553 75.4111 42.185 75.716 42.8445L75.7182 42.8466ZM70.0965 44.4985C69.8587 43.9104 69.7117 43.2596 69.703 42.6239C69.6987 42.2953 69.7398 41.9904 69.8219 41.6856C69.9041 41.3807 70.0122 41.1364 70.2111 40.8877C70.41 40.6391 70.6154 40.4769 70.929 40.3277C71.2446 40.1785 71.6619 40.1158 72.036 40.118C72.4122 40.118 72.8252 40.1958 73.1711 40.3234C73.5192 40.451 73.7895 40.6131 74.09 40.8077C73.0825 42.5612 72.0663 44.3018 71.0371 46.0423C70.65 45.5558 70.3322 45.0845 70.0944 44.4964L70.0965 44.4985Z" fill="#E04403"/>
<path d="M87.7122 48.0476L87.6062 48.1751C87.2214 48.64 86.8019 48.9795 86.3608 49.1827C85.3749 49.6389 84.3111 49.5827 83.3381 49.0422C82.7954 48.7416 82.3089 48.32 81.8873 47.7924C81.4635 47.2606 81.1176 46.6227 80.8624 45.8941C80.6051 45.1654 80.4754 44.3654 80.4754 43.5135C80.4754 43.4054 80.4776 43.2908 80.4862 43.1697C80.4905 43.0962 80.4949 43.027 80.5014 42.9578H87.6408L87.6214 42.7892C87.563 42.2984 87.4095 41.8443 87.1651 41.44C86.9208 41.04 86.616 40.6876 86.2592 40.3935C85.9024 40.0995 85.4981 39.8724 85.0614 39.7146C84.0776 39.36 83.0678 39.4162 82.0192 39.786C81.4354 39.9935 80.897 40.3179 80.4192 40.7524C79.9414 41.187 79.5457 41.7449 79.2408 42.4108C78.936 43.0789 78.7803 43.8811 78.7803 44.8C78.7803 45.7189 78.923 46.5384 79.2062 47.2454C79.4895 47.9524 79.8614 48.5579 80.3154 49.0487C80.7716 49.5395 81.3057 49.9157 81.9046 50.1665C82.5035 50.4151 83.1154 50.5406 83.7295 50.5406C84.523 50.5406 85.3014 50.3719 86.0451 50.0389C86.7932 49.7038 87.4268 49.1654 87.9262 48.4389L87.9976 48.3351L87.71 48.0476H87.7122ZM80.8387 41.6519C80.9705 41.3557 81.1392 41.0897 81.3424 40.8606C81.5435 40.6335 81.7857 40.4497 82.0646 40.3135C82.3414 40.1795 82.6635 40.1103 83.0289 40.1103C83.6776 40.1038 84.1857 40.3092 84.6095 40.7589C85.0051 41.1784 85.3187 41.747 85.5435 42.4476H80.5857C80.6419 42.1665 80.7241 41.8984 80.8343 41.6519H80.8387Z" fill="#E04403"/>
</g>
<defs>
<clipPath id="clip0_142_4593">
<rect width="88" height="56" fill="white"/>
</clipPath>
</defs>
</svg>
