<svg width="20" height="20" viewBox="0 0 20 20" fill="none" xmlns="http://www.w3.org/2000/svg">
<path d="M10.8584 1.66797C11.7959 1.67047 12.2718 1.67547 12.6826 1.68714L12.8443 1.69297C13.031 1.69964 13.2151 1.70797 13.4376 1.71797C14.3243 1.75964 14.9293 1.89964 15.4601 2.10547C16.0101 2.31714 16.4735 2.6038 16.9368 3.0663C17.3605 3.48288 17.6884 3.98679 17.8976 4.54297C18.1035 5.0738 18.2435 5.6788 18.2851 6.5663C18.2951 6.78797 18.3034 6.97214 18.3101 7.15964L18.3151 7.3213C18.3276 7.7313 18.3326 8.20714 18.3343 9.14464L18.3351 9.7663V10.858C18.3372 11.4658 18.3308 12.0736 18.316 12.6813L18.311 12.843C18.3043 13.0305 18.296 13.2146 18.286 13.4363C18.2443 14.3238 18.1026 14.928 17.8976 15.4596C17.689 16.0161 17.3611 16.5202 16.9368 16.9363C16.5201 17.3599 16.0162 17.6878 15.4601 17.8971C14.9293 18.103 14.3243 18.243 13.4376 18.2846C13.2399 18.2939 13.0421 18.3023 12.8443 18.3096L12.6826 18.3146C12.2718 18.3263 11.7959 18.3321 10.8584 18.3338L10.2368 18.3346H9.14595C8.53783 18.3367 7.92972 18.3303 7.32178 18.3155L7.16012 18.3105C6.96229 18.303 6.76451 18.2944 6.56678 18.2846C5.68012 18.243 5.07512 18.103 4.54345 17.8971C3.98734 17.6883 3.48363 17.3603 3.06762 16.9363C2.64349 16.5199 2.3153 16.0159 2.10595 15.4596C1.90012 14.9288 1.76012 14.3238 1.71845 13.4363C1.70917 13.2386 1.70083 13.0408 1.69345 12.843L1.68928 12.6813C1.67393 12.0736 1.66698 11.4658 1.66845 10.858V9.14464C1.66612 8.5368 1.67224 7.92897 1.68678 7.3213L1.69262 7.15964C1.69928 6.97214 1.70762 6.78797 1.71762 6.5663C1.75928 5.6788 1.89928 5.07464 2.10512 4.54297C2.31438 3.98622 2.64322 3.48216 3.06845 3.0663C3.48436 2.64253 3.98774 2.31462 4.54345 2.10547C5.07512 1.89964 5.67928 1.75964 6.56678 1.71797C6.78845 1.70797 6.97345 1.69964 7.16012 1.69297L7.32178 1.68797C7.92944 1.67316 8.53728 1.66677 9.14512 1.6688L10.8584 1.66797ZM10.0018 5.83464C8.89671 5.83464 7.83691 6.27362 7.0555 7.05502C6.2741 7.83643 5.83512 8.89623 5.83512 10.0013C5.83512 11.1064 6.2741 12.1662 7.0555 12.9476C7.83691 13.729 8.89671 14.168 10.0018 14.168C11.1069 14.168 12.1667 13.729 12.9481 12.9476C13.7295 12.1662 14.1685 11.1064 14.1685 10.0013C14.1685 8.89623 13.7295 7.83643 12.9481 7.05502C12.1667 6.27362 11.1069 5.83464 10.0018 5.83464ZM10.0018 7.5013C10.3301 7.50125 10.6552 7.56586 10.9585 7.69144C11.2619 7.81703 11.5375 8.00113 11.7697 8.23324C12.0019 8.46535 12.1861 8.74092 12.3117 9.04421C12.4374 9.3475 12.5021 9.67258 12.5022 10.0009C12.5023 10.3292 12.4376 10.6543 12.3121 10.9576C12.1865 11.261 12.0024 11.5366 11.7703 11.7688C11.5382 12.001 11.2626 12.1852 10.9593 12.3108C10.656 12.4365 10.3309 12.5012 10.0026 12.5013C9.33958 12.5013 8.70369 12.2379 8.23485 11.7691C7.76601 11.3002 7.50262 10.6643 7.50262 10.0013C7.50262 9.33826 7.76601 8.70238 8.23485 8.23354C8.70369 7.76469 9.33958 7.5013 10.0026 7.5013M14.3776 4.58464C14.1013 4.58464 13.8364 4.69438 13.641 4.88973C13.4457 5.08508 13.3359 5.35004 13.3359 5.6263C13.3359 5.90257 13.4457 6.16752 13.641 6.36287C13.8364 6.55822 14.1013 6.66797 14.3776 6.66797C14.6539 6.66797 14.9188 6.55822 15.1142 6.36287C15.3095 6.16752 15.4193 5.90257 15.4193 5.6263C15.4193 5.35004 15.3095 5.08508 15.1142 4.88973C14.9188 4.69438 14.6539 4.58464 14.3776 4.58464Z" fill="#E04403"/>
</svg>
