<svg width="20" height="20" viewBox="0 0 20 20" fill="none" xmlns="http://www.w3.org/2000/svg">
<path d="M18.7185 4.9987C18.0768 5.29036 17.3852 5.48203 16.6685 5.5737C17.4018 5.13203 17.9685 4.43203 18.2352 3.59036C17.5435 4.00703 16.7768 4.2987 15.9685 4.46536C15.3102 3.7487 14.3852 3.33203 13.3352 3.33203C11.3768 3.33203 9.77682 4.93203 9.77682 6.90703C9.77682 7.19036 9.81016 7.46536 9.86849 7.7237C6.90182 7.5737 4.26016 6.1487 2.50182 3.99036C2.19349 4.51536 2.01849 5.13203 2.01849 5.78203C2.01849 7.0237 2.64349 8.1237 3.61016 8.7487C3.01849 8.7487 2.46849 8.58203 1.98516 8.33203V8.35703C1.98516 10.0904 3.21849 11.5404 4.85182 11.8654C4.32743 12.0089 3.7769 12.0288 3.24349 11.9237C3.46983 12.6341 3.9131 13.2557 4.511 13.7011C5.1089 14.1466 5.83136 14.3934 6.57682 14.407C5.31318 15.4074 3.74682 15.9481 2.13516 15.9404C1.85182 15.9404 1.56849 15.9237 1.28516 15.8904C2.86849 16.907 4.75182 17.4987 6.76849 17.4987C13.3352 17.4987 16.9435 12.0487 16.9435 7.3237C16.9435 7.16536 16.9435 7.01536 16.9352 6.85703C17.6352 6.35703 18.2352 5.7237 18.7185 4.9987Z" fill="#E04403"/>
</svg>
