<svg width="20" height="20" viewBox="0 0 20 20" fill="none" xmlns="http://www.w3.org/2000/svg">
<g clip-path="url(#clip0_48_19930)">
<path fill-rule="evenodd" clip-rule="evenodd" d="M10.0006 0.542972C15.1634 0.538686 19.4677 4.85154 19.4677 10.0044C19.4677 15.1615 15.1634 19.4615 10.0006 19.4587C8.64383 19.4594 7.30271 19.1691 6.06773 18.6073L1.38202 19.4544C1.25763 19.4772 1.12944 19.4665 1.01052 19.4235C0.891598 19.3806 0.786223 19.3068 0.705157 19.2097C0.624092 19.1127 0.570242 18.9958 0.549109 18.8712C0.527976 18.7465 0.540317 18.6185 0.584873 18.5001L1.92773 14.9315C1.02304 13.4467 0.543686 11.7418 0.542016 10.003C0.543445 4.85011 4.84344 0.545829 10.0006 0.542972ZM14.7506 14.023C13.6977 14.8744 12.0677 15.7344 10.5092 14.7344C8.4663 13.4215 6.65773 11.6973 5.3463 9.65297C4.5763 8.45583 5.30059 6.53869 6.38344 5.37012C6.81487 4.90297 7.5263 4.97726 7.9963 5.40583L8.98487 6.30869C9.28487 6.58297 9.2963 7.06012 9.10916 7.42297C8.81344 7.99154 8.63916 8.75583 9.00487 9.32583C9.46487 10.0401 10.0306 10.7444 11.382 11.1544C11.7906 11.2801 12.3149 11.2258 12.7606 11.0458C13.1334 10.8944 13.6063 10.8958 13.882 11.1901L14.802 12.1687C15.3092 12.7087 15.3263 13.5573 14.7506 14.023Z" fill="#E04403"/>
</g>
<defs>
<clipPath id="clip0_48_19930">
<rect width="20" height="20" fill="white"/>
</clipPath>
</defs>
</svg>
